<svg xmlns="http://www.w3.org/2000/svg" width="501" height="501" style="shape-rendering:geometricPrecision;text-rendering:geometricPrecision;image-rendering:optimizeQuality;fill-rule:evenodd;clip-rule:evenodd"><path fill="#010100" d="M227.5-.5h44c101.754 12.927 172.587 66.594 212.5 161 27.509 79.749 19.176 155.416-25 227-56.167 79.828-133.334 116.995-231.5 111.5-73.631-7.722-133.131-40.555-178.5-98.5-28.233-38.471-44.733-81.471-49.5-129v-44C12.43 125.744 66.097 54.91 160.5 15c21.835-7.93 44.169-13.096 67-15.5Z" style="opacity:.97"/><path fill="#f0eb47" d="M235.5 19.5c76.671-2.565 140.171 24.768 190.5 82 50.729 63.638 65.396 134.971 44 214-25.535 77.535-77.035 129.035-154.5 154.5-92.3 23.641-171.467 1.474-237.5-66.5-61.87-74.73-74.87-157.396-39-248C73.399 83.78 129.566 39.613 207.5 23a275.854 275.854 0 0 1 28-3.5Z" style="opacity:1"/><path fill="#d7d261" d="M352.5 149.5a314.76 314.76 0 0 0-39 3.5 241.98 241.98 0 0 0 38-1.5c-4.04 1.617-8.373 2.45-13 2.5l-27 1c-1.377 1.241-2.71 1.408-4 .5a52.865 52.865 0 0 1 7-5.5c12.821-1.361 25.487-1.528 38-.5Z" style="opacity:1"/><path fill="#4e4311" d="M352.5 149.5c1.257 1.123.924 1.789-1 2a241.98 241.98 0 0 1-38 1.5 314.76 314.76 0 0 1 39-3.5Z" style="opacity:1"/><path fill="#63591f" d="M396.5 169.5c-3.115 1.677-5.782 1.344-8-1a321.176 321.176 0 0 0 13-3.5 208.311 208.311 0 0 0-5 4.5Z" style="opacity:1"/><path fill="#81753c" d="M334.5 168.5c-2.773 1.157-5.773 1.824-9 2 2.623-1.765 5.623-2.432 9-2Z" style="opacity:1"/><path fill="#1d1809" d="M334.5 167.5h4a215.518 215.518 0 0 1 43 2.5c.556.383.889.883 1 1.5-.006 2.344-1.173 3.678-3.5 4-7.985-1.268-15.819-1.268-23.5 0a72.367 72.367 0 0 0-12 .5c-2.474.037-4.474.87-6 2.5-11.768 1.684-22.768 5.351-33 11-1.739.934-3.405.934-5 0a7.248 7.248 0 0 1 2-2.5c16.259-9.69 33.926-14.524 53-14.5a81.883 81.883 0 0 0 18-1l-1.5-1c-6.975-1.296-13.808-1.296-20.5 0a119.018 119.018 0 0 0-35 5.5 254.989 254.989 0 0 0-27 13.5l-1-.5c2.581-3.088 5.581-5.588 9-7.5a34.303 34.303 0 0 0 9-4.5 140.195 140.195 0 0 1 20-6.5c3.227-.176 6.227-.843 9-2v-1Z" style="opacity:1"/><path fill="#555444" d="M350.5 170.5c6.692-1.296 13.525-1.296 20.5 0l1.5 1a81.883 81.883 0 0 1-18 1c3.812-.824 7.812-1.324 12-1.5a128.507 128.507 0 0 0-16-.5Z" style="opacity:1"/><path fill="#e6e157" d="M334.5 167.5v1c-3.377-.432-6.377.235-9 2a140.195 140.195 0 0 0-20 6.5 34.303 34.303 0 0 1-9 4.5c.4-1.877 1.4-3.377 3-4.5a3.943 3.943 0 0 0-1-2c1.537-1.11 2.203-2.61 2-4.5-5.135 1.721-10.302 2.388-15.5 2-.333-1.547.167-2.88 1.5-4 4.966-.64 7.966-3.307 9-8a45.747 45.747 0 0 1 12 1c4.085-1.779 8.418-2.446 13-2 1.371-1.287 3.205-1.953 5.5-2 5.677-1.156 7.177.511 4.5 5a3.647 3.647 0 0 0 1 1.5 60.931 60.931 0 0 1-11 .5v3h14Z" style="opacity:1"/><path fill="#554c17" d="M320.5 159.5a13.116 13.116 0 0 1 7 1l-2.5 1a175.5 175.5 0 0 0-31.5 8l-1-1a292.135 292.135 0 0 1 28-9Z" style="opacity:1"/><path fill="#b5b24e" d="M382.5 171.5c.806 1.497 1.472 3.164 2 5l-1 1c-2.951.857-5.951.857-9 0-6.145-.99-12.478-1.323-19-1v-1c7.681-1.268 15.515-1.268 23.5 0 2.327-.322 3.494-1.656 3.5-4Z" style="opacity:1"/><path fill="#6c6a2e" d="M355.5 175.5v1h-1a86.613 86.613 0 0 0-17 2c1.526-1.63 3.526-2.463 6-2.5a72.367 72.367 0 0 1 12-.5Z" style="opacity:1"/><path fill="#d8d354" d="M338.5 167.5c14.161-1.161 28.494-1.327 43-.5a14.51 14.51 0 0 0 4.5 4.5 81.316 81.316 0 0 1 2.5-3c2.218 2.344 4.885 2.677 8 1-.077 1.25-.744 2.083-2 2.5-2.31.497-4.643.663-7 .5v4a60.931 60.931 0 0 1 11 .5c.837 1.011 1.17 2.178 1 3.5-1.915.284-3.581-.049-5-1 4.911-.336 4.577-1.002-1-2-2.221-.061-2.554.605-1 2a39.654 39.654 0 0 0-11 1c-2.534-.773-4.868-1.773-7-3 3.049.857 6.049.857 9 0l1-1c-.528-1.836-1.194-3.503-2-5-.111-.617-.444-1.117-1-1.5a215.518 215.518 0 0 0-43-2.5Z" style="opacity:1"/><path fill="#48380c" d="M394.5 179.5h-2c-1.554-1.395-1.221-2.061 1-2 5.577.998 5.911 1.664 1 2Z" style="opacity:1"/><path fill="#d0cd62" d="M176.5 179.5c8.484-.993 17.151-1.326 26-1a94.977 94.977 0 0 0 8 2c1.241 3.037 1.241 6.037 0 9a10.134 10.134 0 0 1-4-1.5c3.425-1.598 3.758-3.598 1-6a112.784 112.784 0 0 0-31-2.5Z" style="opacity:1"/><path fill="#e9e354" d="M202.5 178.5c-8.849-.326-17.516.007-26 1l-6 1c-7.274.604-14.274 1.938-21 4-10.933 2.968-20.599 8.301-29 16l-3 2c-.322-2.222.345-4.056 2-5.5a4.934 4.934 0 0 0-3-.5c-.171-3.297.495-3.631 2-1a14.972 14.972 0 0 0 3.5-3l1 1a9.454 9.454 0 0 1 1.5-2.5 24.935 24.935 0 0 1 7-.5v-3h7a4.934 4.934 0 0 0-.5-3 12.14 12.14 0 0 1-4.5-3.5l1-1c-3.407-1.127-3.074-2.46 1-4a8.43 8.43 0 0 1 4-.5v-3h4c-.203-1.89.463-3.39 2-4.5-.808-1.706-2.141-2.539-4-2.5v6c-2.427.023-4.76.523-7 1.5-1.216 1.74-2.882 2.74-5 3-1.415 3.751-3.915 6.584-7.5 8.5a7.293 7.293 0 0 0-2-3c-2.149 2.946-3.982 3.113-5.5.5a31.048 31.048 0 0 0 7-9.5 9.86 9.86 0 0 1 6-1v-3h-3c-.006-3.048.994-3.548 3-1.5 3.889 1.14 7.222.307 10-2.5l2 1c1.463-2.065 3.463-3.065 6-3a101.93 101.93 0 0 0 18 1c.061 2.092 1.061 3.592 3 4.5-1.607 1.049-2.273 2.549-2 4.5-4.583.395-8.916 1.562-13 3.5-1.333.667-1.333 1.333 0 2l-3 1 1 1c4.333.667 8.667.667 13 0a73.687 73.687 0 0 0 21-5.5 178.794 178.794 0 0 0 19 4Z" style="opacity:1"/><path fill="#544715" d="M139.5 175.5a757.4 757.4 0 0 0 16-5.5c2.727-.818 5.394-.652 8 .5a134.33 134.33 0 0 0-22 6c-.916-.043-1.583-.376-2-1Z" style="opacity:1"/><path fill="#4b4014" d="M136.5 167.5c1.548.321 2.215 1.321 2 3-7.235 1.367-13.401 4.701-18.5 10 .195-2.245 1.362-4.078 3.5-5.5 4.428-2.541 8.762-5.041 13-7.5Z" style="opacity:1"/><path fill="#1c1709" d="M176.5 179.5a112.784 112.784 0 0 1 31 2.5c2.758 2.402 2.425 4.402-1 6a10.134 10.134 0 0 0 4 1.5c.904.709 1.237 1.709 1 3a87.925 87.925 0 0 1-9-2c-7.901-1.313-15.901-1.313-24 0-3.663.452-7.33.952-11 1.5-2.153.099-3.819.933-5 2.5h-1a221.359 221.359 0 0 0-23 10.5c-1.971 3.647-4.971 5.814-9 6.5a42.47 42.47 0 0 1 1.5-5 89.868 89.868 0 0 0 8.5-7 332.075 332.075 0 0 0 19-9 217.343 217.343 0 0 0 24-4.5 98.432 98.432 0 0 1 14-.5 9.86 9.86 0 0 0 6-1 6.802 6.802 0 0 0-3-1.5c-8.177-.823-16.177-.656-24 .5-3.109-.236-6.109.097-9 1a40.914 40.914 0 0 1-9-.5c4.546-.849 8.879-2.015 13-3.5l6-1Z" style="opacity:1"/><path fill="#64613b" d="M175.5 183.5c7.823-1.156 15.823-1.323 24-.5a6.802 6.802 0 0 1 3 1.5 9.86 9.86 0 0 1-6 1c.418-.722 1.084-1.222 2-1.5-7.659-.5-15.326-.666-23-.5Z" style="opacity:1"/><path fill="#423d1a" d="M170.5 180.5c-4.121 1.485-8.454 2.651-13 3.5 2.982.498 5.982.665 9 .5a126.86 126.86 0 0 1-11 2c.111-.617.444-1.117 1-1.5a24.935 24.935 0 0 0-7-.5c6.726-2.062 13.726-3.396 21-4Z" style="opacity:1"/><path fill="#b9ba5c" d="M175.5 183.5c7.674-.166 15.341 0 23 .5-.916.278-1.582.778-2 1.5a98.432 98.432 0 0 0-14 .5 217.343 217.343 0 0 1-24 4.5c-.47-1.193-1.47-1.86-3-2a187.6 187.6 0 0 1-12 2 173.552 173.552 0 0 1 12-4 126.86 126.86 0 0 0 11-2c2.891-.903 5.891-1.236 9-1Z" style="opacity:1"/><path fill="#c8c96a" d="M350.5 170.5c5.344-.166 10.677.001 16 .5-4.188.176-8.188.676-12 1.5-19.074-.024-36.741 4.81-53 14.5a7.248 7.248 0 0 0-2 2.5c1.595.934 3.261.934 5 0-1.411 2.039-3.411 3.039-6 3-1.228-1.51-1.228-3.01 0-4.5-1.333-.667-2.667-.667-4 0-3.388 3.341-6.388 3.175-9-.5a26.894 26.894 0 0 1 11-6c-3.419 1.912-6.419 4.412-9 7.5l1 .5a254.989 254.989 0 0 1 27-13.5 119.018 119.018 0 0 1 35-5.5Z" style="opacity:1"/><path fill="#848216" d="M346.5 185.5c5.676-.166 11.343.001 17 .5-6.347.643-12.68.976-19 1 .916-.278 1.582-.778 2-1.5Z" style="opacity:1"/><path fill="#201b0a" d="M149.5 184.5c2.357-.163 4.69.003 7 .5-.556.383-.889.883-1 1.5a173.552 173.552 0 0 0-12 4 169.368 169.368 0 0 0-22 11c-.607-.124-.94-.457-1-1 8.401-7.699 18.067-13.032 29-16Z" style="opacity:1"/><path fill="#acac4d" d="M202.5 190.5a140.172 140.172 0 0 0-27 2l3-2c8.099-1.313 16.099-1.313 24 0Z" style="opacity:1"/><path fill="#726d39" d="m178.5 190.5-3 2-13 2c1.181-1.567 2.847-2.401 5-2.5 3.67-.548 7.337-1.048 11-1.5Z" style="opacity:1"/><path fill="#d6d354" d="M354.5 176.5c-7.631 2.978-15.631 4.978-24 6a12.403 12.403 0 0 1-4 2.5c-5.327-.618-9.66 1.049-13 5-2.31.497-4.643.663-7 .5-.02 1.643.647 2.976 2 4l-2.5 1-7.5-3c2.589.039 4.589-.961 6-3 10.232-5.649 21.232-9.316 33-11a86.613 86.613 0 0 1 17-2Z" style="opacity:1"/><path fill="#d2cf50" d="M158.5 190.5a332.075 332.075 0 0 1-19 9c-2.706.188-5.039 1.188-7 3-.12-1.086-.787-1.753-2-2-3.569.944-6.903 2.277-10 4-1.53-.14-2.53-.807-3-2l3-2c.06.543.393.876 1 1a169.368 169.368 0 0 1 22-11 187.6 187.6 0 0 0 12-2c1.53.14 2.53.807 3 2Z" style="opacity:1"/><path fill="#352b0a" d="M95.5 203.5c-1.208-.734-2.541-1.067-4-1-.963-.863-.963-1.53 0-2a32.359 32.359 0 0 0 10 2.5 18.452 18.452 0 0 1-6 .5Z" style="opacity:1"/><path fill="#b4b056" d="M139.5 199.5a89.868 89.868 0 0 1-8.5 7 42.47 42.47 0 0 0-1.5 5c-1.149-.291-1.816-1.124-2-2.5l.5-2.5a32.6 32.6 0 0 0 4.5-4c1.961-1.812 4.294-2.812 7-3Z" style="opacity:1"/><path fill="#6c6417" d="M163.5 204.5c.172.992-.162 1.658-1 2-4.981 1.99-9.981 3.49-15 4.5 4.797-3.434 10.131-5.6 16-6.5Z" style="opacity:1"/><path fill="#ded854" d="M112.5 208.5c-5.178.925-9.844 2.925-14 6l.5 1a49.194 49.194 0 0 1 13.5-6v3c-7.973.174-7.973.674 0 1.5a133.554 133.554 0 0 1-16 2.5c.396-2.544-.271-4.711-2-6.5l1-1c2.913.29 5.913.457 9 .5v-3c-3.529-.057-6.529-1.057-9-3a18.452 18.452 0 0 0 6-.5 32.359 32.359 0 0 1-10-2.5c-.963.47-.963 1.137 0 2-2.09.05-3.423-.95-4-3l5.5-1c3.772.324 7.272 1.324 10.5 3-.02 1.643.647 2.976 2 4a73.972 73.972 0 0 0 7 3Z" style="opacity:1"/><path fill="#cfc955" d="M385.5 234.5c.166-7.008 0-14.008-.5-21-3.336-3.172-7.17-4.172-11.5-3 3.234.541 6.067 1.874 8.5 4 .5 6.658.666 13.325.5 20-.99-5.81-1.323-11.81-1-18h-3v-3c-1.96-.638-3.793-.638-5.5 0-.442-2.179-1.442-2.845-3-2-.617-.949-.451-1.782.5-2.5 5.794-2.068 11.461-1.735 17 1-.494 4.725-.494 9.558 0 14.5-.014 3.739-.68 7.072-2 10Z" style="opacity:1"/><path fill="#595017" d="M112.5 208.5v1a49.194 49.194 0 0 0-13.5 6l-.5-1c4.156-3.075 8.822-5.075 14-6Z" style="opacity:1"/><path fill="#d8d354" d="M161.5 194.5c-5.133 3.741-10.8 6.741-17 9-3.123 2.041-5.457 4.708-7 8 1.223 1.114 2.556 1.281 4 .5a44.048 44.048 0 0 0 4.5-4.5 140.08 140.08 0 0 0 15.5-5c1.213.247 1.88.914 2 2-5.869.9-11.203 3.066-16 6.5 5.019-1.01 10.019-2.51 15-4.5v3a211.187 211.187 0 0 1-19 5.5c-1.947 2.019-4.28 3.519-7 4.5-1.211-.774-1.211-1.607 0-2.5-2.114-2.28-4.447-4.113-7-5.5 4.029-.686 7.029-2.853 9-6.5a221.359 221.359 0 0 1 23-10.5Z" style="opacity:1"/><path fill="#352e10" d="M385.5 234.5v3h-3v-3c.166-6.675 0-13.342-.5-20-2.433-2.126-5.266-3.459-8.5-4 4.33-1.172 8.164-.172 11.5 3 .5 6.992.666 13.992.5 21Z" style="opacity:1"/><path fill="#e0dd5b" d="M373.5 226.5a3528 3528 0 0 1-35 18 19.22 19.22 0 0 1-6 1h-2c-.203-1.89.463-3.39 2-4.5a38.085 38.085 0 0 0-7-2.5l4.5-1c3.645 1.522 7.478 2.022 11.5 1.5a251.165 251.165 0 0 0 31-13.5c.607.124.94.457 1 1Z" style="opacity:1"/><path fill="#fcfcfc" d="M357.5 293.5a88.819 88.819 0 0 1-12 7c-.543.06-.876.393-1 1 4.668 1.003 9.335.837 14-.5l-2-1c2.369-.536 4.369-1.703 6-3.5 2.528.998 2.528 1.831 0 2.5 1.078.674 1.745 1.674 2 3-.91 8.48-1.576 16.98-2 25.5a493.759 493.759 0 0 1-21 15.5 575.58 575.58 0 0 1-57 29.5 10275.686 10275.686 0 0 0-33 6 102.077 102.077 0 0 1-18.5-1 122.902 122.902 0 0 1-27.5 2h-2c-5.151-.827-10.484-1.327-16-1.5-3-.333-4.667-2-5-5a112.97 112.97 0 0 0-15-.5c-3.004-.222-5.671-1.222-8-3-1.989-2.41-4.322-4.577-7-6.5a3.647 3.647 0 0 0 1-1.5c-5.051-7.15-7.384-15.15-7-24 1.803-1.094 2.136-2.761 1-5-.063-2.014.603-3.681 2-5 1.312-.645 2.312-1.645 3-3-5.294-.358-10.294-1.691-15-4a31.642 31.642 0 0 1-3-5 140.21 140.21 0 0 1-.5-10c.424 2.115 1.591 2.948 3.5 2.5a1113.878 1113.878 0 0 1-2-31.5c2.42-.208 4.753.126 7 1a245.776 245.776 0 0 0 17-3h13a386.402 386.402 0 0 0 60-1 1221.02 1221.02 0 0 0 36-6c4.6.22 8.933-.446 13-2a112.502 112.502 0 0 1 16-4c5.313-1.161 10.646-2.328 16-3.5.556-.383.889-.883 1-1.5a9.108 9.108 0 0 0 5-1 4.457 4.457 0 0 1 1.5 2c4.529-2.258 9.363-3.425 14.5-3.5-1.801-.317-2.134-.984-1-2a36.452 36.452 0 0 0 13-5 91.524 91.524 0 0 0 8-.5 20.035 20.035 0 0 0 3 6c-1.614 9.181-.947 18.181 2 27-1.333 1.333-1.333 2.667 0 4a20.91 20.91 0 0 1-4 8c.363.683.696 1.35 1 2Z" style="opacity:1"/><path fill="#b5b457" d="M326.5 245.5h6a145.658 145.658 0 0 0-22 8 26.505 26.505 0 0 1 4.5-4c4.081-.973 7.914-2.307 11.5-4Z" style="opacity:1"/><path fill="#211e16" d="M373.5 226.5c.876-.131 1.543.202 2 1-2.003 1.633-3.336 3.633-4 6-.617.111-1.117.444-1.5 1a214.315 214.315 0 0 0-2.5 16.5 291.308 291.308 0 0 1 2.5 35.5 39.447 39.447 0 0 1-4.5 6c2.708 1.078 4.208 3.078 4.5 6 .333 7.005.167 14.005-.5 21 .409 3.355-.258 6.355-2 9a8663.135 8663.135 0 0 1-19 11.5 14.698 14.698 0 0 0-3 3.5 462.286 462.286 0 0 1-30 18 248.865 248.865 0 0 1-28 13 286.098 286.098 0 0 1-36 7 301.04 301.04 0 0 1-59 1c-.418-.722-1.084-1.222-2-1.5a112.97 112.97 0 0 1 15-.5c15.533.339 30.867-.327 46-2 10.865-1.994 21.865-3.994 33-6a575.58 575.58 0 0 0 57-29.5 493.759 493.759 0 0 0 21-15.5c1.644.214 3.144-.12 4.5-1a114.159 114.159 0 0 0 1-28c-.872-2.113-2.372-3.446-4.5-4-3.569 2.814-7.569 4.98-12 6.5-2.212.789-4.212.622-6-.5a88.819 88.819 0 0 0 12-7c3.62-1.785 6.453-4.452 8.5-8a271.781 271.781 0 0 0-2.5-33.5c-.139-6.391 1.194-12.391 4-18-1-.667-2-.667-3 0-6.796 4.758-14.129 8.258-22 10.5h-4a3528 3528 0 0 0 35-18Z" style="opacity:1"/><path fill="#50491e" d="M300.5 255.5c-.47 1.193-1.47 1.86-3 2a28.459 28.459 0 0 1-10 2c4.009-2.078 8.342-3.411 13-4Z" style="opacity:1"/><path fill="#e4e2e3" d="M357.5 293.5a43.836 43.836 0 0 0-1-2 20.91 20.91 0 0 0 4-8c-1.333-1.333-1.333-2.667 0-4-2.947-8.819-3.614-17.819-2-27a20.035 20.035 0 0 1-3-6 91.524 91.524 0 0 1-8 .5 36.452 36.452 0 0 1-13 5c-1.134 1.016-.801 1.683 1 2-5.137.075-9.971 1.242-14.5 3.5a4.457 4.457 0 0 0-1.5-2 9.108 9.108 0 0 1-5 1 42832.83 42832.83 0 0 1 28-12c7.871-2.242 15.204-5.742 22-10.5 1-.667 2-.667 3 0-2.806 5.609-4.139 11.609-4 18a271.781 271.781 0 0 1 2.5 33.5c-2.047 3.548-4.88 6.215-8.5 8Z" style="opacity:1"/><path fill="#99969e" d="M314.5 256.5c-.111.617-.444 1.117-1 1.5-5.354 1.172-10.687 2.339-16 3.5 5.298-2.536 10.965-4.203 17-5Z" style="opacity:1"/><path fill="#e5e065" d="M326.5 245.5c-3.586 1.693-7.419 3.027-11.5 4a26.505 26.505 0 0 0-4.5 4 53.768 53.768 0 0 0-10 2c-4.658.589-8.991 1.922-13 4a348.432 348.432 0 0 1-24 4 105.178 105.178 0 0 1-22 2 5324.219 5324.219 0 0 1 43-7.5l4-2c-1.333-.667-1.333-1.333 0-2 2.581-1.796 5.248-1.963 8-.5a35.261 35.261 0 0 1 14-2v-3a21.336 21.336 0 0 0 7-1c2.477-2.962 5.477-3.629 9-2Z" style="opacity:1"/><path fill="#7d8182" d="M281.5 265.5c-4.067 1.554-8.4 2.22-13 2 4.067-1.554 8.4-2.22 13-2Z" style="opacity:1"/><path fill="#e6e052" d="M105.5 266.5c5.816 1.347 7.483 4.847 5 10.5-4.907 1.102-7.573-.898-8-6a15.254 15.254 0 0 1-4.5-1.5l-1 1a15.28 15.28 0 0 0-1.5-4.5c1.667-4.66.834-8.826-2.5-12.5a84.94 84.94 0 0 0-.5 13c-1.322.17-2.489-.163-3.5-1-1.46-6.478-1.294-12.811.5-19 4.3 1.38 6.3-.286 6-5h4c-.047-4.636 1.953-5.969 6-4a40.914 40.914 0 0 1-.5 9c-.71 1.473-1.876 2.14-3.5 2-.211 4.173.956 7.839 3.5 11 .497 2.31.663 4.643.5 7Z" style="opacity:1"/><path fill="#443a0e" d="M105.5 266.5a701.521 701.521 0 0 0 4 7c-1.829.782-3.329.116-4.5-2a42.4 42.4 0 0 0-5-10c-3.068-6.076-3.068-12.076 0-18 1.185-2.059 2.352-2.226 3.5-.5-.576 1.714-1.743 2.881-3.5 3.5l-.5 4c1.401 5.642 3.401 10.976 6 16Z" style="opacity:1"/><path fill="#ccc86b" d="M371.5 233.5c-2.683 15.865-2.349 31.698 1 47.5l-.5 5.5c-1.363 1.393-2.196 3.059-2.5 5a77.689 77.689 0 0 1 1.5 26c-.278.916-.778 1.582-1.5 2 .667-6.995.833-13.995.5-21-.292-2.922-1.792-4.922-4.5-6a39.447 39.447 0 0 0 4.5-6 291.308 291.308 0 0 0-2.5-35.5 214.315 214.315 0 0 1 2.5-16.5c.383-.556.883-.889 1.5-1Z" style="opacity:1"/><path fill="#12100d" d="M338.5 244.5h4a42832.83 42832.83 0 0 0-28 12c-6.035.797-11.702 2.464-17 5a112.502 112.502 0 0 0-16 4c-4.6-.22-8.933.446-13 2a1221.02 1221.02 0 0 1-36 6c-19.997.49-39.997.823-60 1h-2c-5.098-1.457-10.431-2.124-16-2a1046.17 1046.17 0 0 0-28-6c-.067 1.459.266 2.792 1 4a520.351 520.351 0 0 1 2.5 29c.232 1.237.732 2.237 1.5 3 .452 3.663.952 7.33 1.5 11 .278.916.778 1.582 1.5 2a8.43 8.43 0 0 1-.5 4c-.383-.556-.883-.889-1.5-1-.432-1.21-1.099-2.21-2-3-.656-6.27-1.989-12.27-4-18v-1c.166-7.008 0-14.008-.5-21-.156-2.691-.989-5.024-2.5-7-.299-3.142-1.966-5.309-5-6.5 1.765-.64 3.432-.473 5 .5 4.419 1.472 9.086 2.138 14 2a139.142 139.142 0 0 0 18 2v1c12.059 2.467 24.392 3.467 37 3a405.997 405.997 0 0 0 42-2 3326.95 3326.95 0 0 1 27-3.5c.916-.278 1.582-.778 2-1.5a348.432 348.432 0 0 0 24-4 28.459 28.459 0 0 0 10-2c1.53-.14 2.53-.807 3-2a53.768 53.768 0 0 1 10-2 145.658 145.658 0 0 1 22-8 19.22 19.22 0 0 0 6-1Z" style="opacity:1"/><path fill="#aeae54" d="m237.5 266.5-3 2a405.997 405.997 0 0 1-42 2c-12.608.467-24.941-.533-37-3a572.331 572.331 0 0 0 82-1Z" style="opacity:1"/><path fill="#6e6b30" d="M263.5 263.5c-.418.722-1.084 1.222-2 1.5a3326.95 3326.95 0 0 0-27 3.5l3-2c1.599.268 2.932-.066 4-1 7.412.105 14.745-.562 22-2Z" style="opacity:1"/><path fill="#818085" d="M154.5 272.5c5.569-.124 10.902.543 16 2h-11l-5-2Z" style="opacity:1"/><path fill="#7b7b7c" d="M232.5 273.5a386.402 386.402 0 0 1-60 1c20.003-.177 40.003-.51 60-1Z" style="opacity:1"/><path fill="#b9b953" d="M123.5 268.5c1.511 1.976 2.344 4.309 2.5 7 .5 6.992.666 13.992.5 21-.995-9.192-1.995-18.525-3-28Z" style="opacity:1"/><path fill="#575254" d="M127.5 270.5c1.387 2.377 2.221 5.043 2.5 8 .343 8.019.843 16.019 1.5 24-.768-.763-1.268-1.763-1.5-3a520.351 520.351 0 0 0-2.5-29Z" style="opacity:1"/><path fill="#e0dd58" d="M155.5 266.5a139.142 139.142 0 0 1-18-2c-4.4-1.604-9.066-2.271-14-2-1.568-.973-3.235-1.14-5-.5 3.034 1.191 4.701 3.358 5 6.5 1.005 9.475 2.005 18.808 3 28v1a76.88 76.88 0 0 0 1.5 17c.671.752 1.504 1.086 2.5 1 .901.79 1.568 1.79 2 3 .233 1.562.9 2.895 2 4-4.77-1.602-8.104-4.769-10-9.5.58-2.458.914-4.958 1-7.5-1.636-10.158-2.469-20.491-2.5-31a1240.52 1240.52 0 0 0-3.5-10c-3.85-.201-4.85-2.034-3-5.5 3.051-.857 5.717-.19 8 2 10.721.458 21.054 2.291 31 5.5Z" style="opacity:1"/><path fill="#4c4c19" d="M123.5 262.5c4.934-.271 9.6.396 14 2-4.914.138-9.581-.528-14-2Z" style="opacity:1"/><path fill="#e6e6e7" d="m154.5 272.5 5 2a245.776 245.776 0 0 1-17 3 15.418 15.418 0 0 0-7-1 1113.878 1113.878 0 0 0 2 31.5c-1.909.448-3.076-.385-3.5-2.5.046 3.3.212 6.634.5 10-.722-.418-1.222-1.084-1.5-2a436.267 436.267 0 0 1-1.5-11 610.493 610.493 0 0 1-1.5-24c-.279-2.957-1.113-5.623-2.5-8-.734-1.208-1.067-2.541-1-4a1046.17 1046.17 0 0 1 28 6Z" style="opacity:1"/><path fill="#373737" d="M195.5 293.5c2.986 5.803 5.319 11.97 7 18.5l-1 1.5c-2.863-3.188-4.696-6.855-5.5-11-1.357-3.027-1.524-6.027-.5-9Z" style="opacity:1"/><path fill="#c0bb5e" d="M126.5 297.5c2.011 5.73 3.344 11.73 4 18-.996.086-1.829-.248-2.5-1a76.88 76.88 0 0 1-1.5-17Z" style="opacity:1"/><path fill="#2a2a2a" d="M274.5 298.5h3a112.578 112.578 0 0 1 5 13c4.05 1.273 8.05 1.106 12-.5a192.076 192.076 0 0 0 18-8c13.206-.276 13.206.724 0 3a1445.34 1445.34 0 0 1-15 7c-4.831 2.062-9.831 2.729-15 2l-3.5-3.5a296.162 296.162 0 0 0-4.5-13Z" style="opacity:1"/><path fill="#2d2d2d" d="M234.5 315.5h10v3c-16.26 1.256-32.26 4.256-48 9-1.021-.502-1.188-1.168-.5-2a11.333 11.333 0 0 1 3.5-1.5 2090.08 2090.08 0 0 1 35-8.5Z" style="opacity:1"/><path fill="#dee0db" d="M362.5 327.5c.424-8.52 1.09-17.02 2-25.5-.255-1.326-.922-2.326-2-3 2.528-.669 2.528-1.502 0-2.5-1.631 1.797-3.631 2.964-6 3.5l2 1c-4.665 1.337-9.332 1.503-14 .5.124-.607.457-.94 1-1 1.788 1.122 3.788 1.289 6 .5 4.431-1.52 8.431-3.686 12-6.5 2.128.554 3.628 1.887 4.5 4 .816 9.379.483 18.713-1 28-1.356.88-2.856 1.214-4.5 1Z" style="opacity:1"/><path fill="#afad58" d="M136.5 323.5c4.701 1.184 5.867 3.851 3.5 8a84.902 84.902 0 0 0-.5 13 144.618 144.618 0 0 0-3-21Z" style="opacity:1"/><path fill="#dcd75a" d="m134.5 322.5 2 1a144.618 144.618 0 0 1 3 21 67.584 67.584 0 0 0 3.5 14c2.812 5.34 6.312 10.007 10.5 14-2.662-1.768-5.662-2.435-9-2-.213-3.905-1.713-7.238-4.5-10a1000.999 1000.999 0 0 1-4.5-22.5 42.593 42.593 0 0 1 2-8.5 520.273 520.273 0 0 1-3-7Z" style="opacity:1"/><path fill="#cac85a" d="M367.5 328.5c-1.086 3.417-3.419 5.417-7 6-1.903 2.959-4.569 4.626-8 5a701.521 701.521 0 0 1-7 4 14.698 14.698 0 0 1 3-3.5 8663.135 8663.135 0 0 0 19-11.5Z" style="opacity:1"/><path fill="#dadadc" d="M149.5 327.5c-1.397 1.319-2.063 2.986-2 5 1.136 2.239.803 3.906-1 5-.384 8.85 1.949 16.85 7 24a3.647 3.647 0 0 1-1 1.5c2.678 1.923 5.011 4.09 7 6.5a20.69 20.69 0 0 1-5-1 54.53 54.53 0 0 1-6.5-6c-6.278-11.01-7.778-22.677-4.5-35h6Z" style="opacity:1"/><path fill="#2d2b1d" d="M134.5 315.5a31.642 31.642 0 0 0 3 5c4.706 2.309 9.706 3.642 15 4-.688 1.355-1.688 2.355-3 3h-6c-3.278 12.323-1.778 23.99 4.5 35a54.53 54.53 0 0 0 6.5 6c3.688 2.942 8.021 4.609 13 5a114.082 114.082 0 0 0 16 5c6.634.997 13.3 1.33 20 1h2v1a112.97 112.97 0 0 0-15 .5c.916.278 1.582.778 2 1.5a73.314 73.314 0 0 1-12-1c-7.178-.536-13.511-3.036-19-7.5-2.71.572-5.377.072-8-1.5-4.188-3.993-7.688-8.66-10.5-14a67.584 67.584 0 0 1-3.5-14 84.902 84.902 0 0 1 .5-13c2.367-4.149 1.201-6.816-3.5-8l-2-1c-1.1-1.105-1.767-2.438-2-4 .617.111 1.117.444 1.5 1a8.43 8.43 0 0 0 .5-4Z" style="opacity:1"/><path fill="#c9c65e" d="M315.5 361.5c-2.894 2.748-6.06 5.414-9.5 8a196.824 196.824 0 0 1-18.5 5 248.865 248.865 0 0 0 28-13Z" style="opacity:1"/><path fill="#7c767b" d="M154.5 368.5a20.69 20.69 0 0 0 5 1c2.329 1.778 4.996 2.778 8 3v1c-4.979-.391-9.312-2.058-13-5Z" style="opacity:1"/><path fill="#d1d6cf" d="M167.5 372.5a112.97 112.97 0 0 1 15 .5c.333 3 2 4.667 5 5 5.516.173 10.849.673 16 1.5-6.7.33-13.366-.003-20-1a114.082 114.082 0 0 1-16-5v-1Z" style="opacity:1"/><path fill="#bebdbe" d="M251.5 378.5c-15.133 1.673-30.467 2.339-46 2v-1c9.249.364 18.415-.302 27.5-2a102.077 102.077 0 0 0 18.5 1Z" style="opacity:1"/><path fill="#eae554" d="M352.5 339.5c-.256 2.412.744 4.079 3 5-3.018.453-6.018.787-9 1 1.234 1.898.901 3.565-1 5a182.261 182.261 0 0 0-18 5.5c-.999 2.761-2.999 4.094-6 4l-5.5 5.5c.063 2.673.729 2.673 2 0 4.111 2.729 4.444 5.729 1 9-1.889-2.885-4.556-4.552-8-5a98.914 98.914 0 0 0-11.5 3.5 36.16 36.16 0 0 0 7 4c-5.417.768-10.417 2.602-15 5.5-3.924-.63-8.091-1.297-12.5-2-12.388-.209-24.221 2.124-35.5 7-9.795-.643-19.462-1.31-29-2 9.339.166 18.673 0 28-.5 2.922-1.603 5.922-2.77 9-3.5a286.098 286.098 0 0 0 36-7 196.824 196.824 0 0 0 18.5-5c3.44-2.586 6.606-5.252 9.5-8a462.286 462.286 0 0 0 30-18 701.521 701.521 0 0 0 7-4Z" style="opacity:1"/><path fill="#d1ce65" d="M180.5 381.5c3.966.662 7.966.995 12 1a301.04 301.04 0 0 0 59-1c-3.078.73-6.078 1.897-9 3.5-9.327.5-18.661.666-28 .5a1255.426 1255.426 0 0 1-32-2.5c-.916-.278-1.582-.778-2-1.5Z" style="opacity:1"/></svg>