<?xml version="1.0" standalone="no"?>
<!DOCTYPE svg PUBLIC "-//W3C//DTD SVG 20010904//EN"
 "http://www.w3.org/TR/2001/REC-SVG-20010904/DTD/svg10.dtd">
<svg version="1.0" xmlns="http://www.w3.org/2000/svg"
 width="501.000000pt" height="501.000000pt" viewBox="0 0 501.000000 501.000000"
 preserveAspectRatio="xMidYMid meet">

<g transform="translate(0.000000,501.000000) scale(0.100000,-0.100000)"
fill="#000000" stroke="none">
<path d="M2265 4999 c-420 -44 -796 -177 -1143 -405 -147 -96 -230 -163 -359
-287 -406 -391 -664 -908 -744 -1487 -17 -124 -17 -496 0 -620 102 -740 497
-1376 1102 -1774 684 -449 1508 -538 2284 -247 206 78 490 242 665 385 504
411 821 981 911 1636 17 124 17 496 0 620 -102 739 -497 1376 -1101 1773 -355
233 -724 363 -1159 407 -118 12 -339 11 -456 -1z m596 -219 c154 -24 283 -57
409 -104 52 -20 99 -36 103 -36 19 0 255 -125 351 -185 572 -359 954 -947
1053 -1620 12 -84 17 -181 17 -325 0 -381 -73 -699 -234 -1021 -154 -305 -379
-584 -631 -781 -206 -161 -457 -297 -694 -376 -268 -89 -440 -116 -735 -116
-329 0 -506 33 -860 159 -48 18 -218 101 -290 143 -394 230 -703 559 -910 971
-161 321 -235 643 -235 1021 0 521 149 967 464 1390 382 513 985 843 1651 904
106 10 419 -4 541 -24z"/>
<path d="M3349 3500 c-155 -9 -207 -17 -239 -36 -17 -10 -18 -13 -5 -9 16 6
346 33 418 35 10 0 15 5 12 10 -3 6 -18 9 -33 8 -15 0 -84 -4 -153 -8z"/>
<path d="M3195 3400 c-76 -14 -235 -60 -263 -75 -27 -16 -27 -16 -2 -11 14 2
70 15 125 29 55 13 127 30 160 37 105 23 87 40 -20 20z"/>
<path d="M3980 3349 c-30 -15 -64 -31 -75 -35 -19 -7 -19 -8 3 -12 32 -5 74
14 108 49 15 16 26 28 23 28 -2 -1 -29 -14 -59 -30z"/>
<path d="M3455 3329 c-66 -4 -136 -12 -155 -18 -19 -5 -64 -19 -100 -29 -114
-33 -279 -114 -307 -150 -26 -32 -11 -30 61 9 113 60 250 112 371 139 73 17
252 28 315 20 l55 -7 -45 -2 c-64 -2 -285 -29 -349 -42 -102 -21 -269 -96
-301 -134 -24 -29 14 -26 77 4 148 72 318 113 566 138 51 5 150 -7 196 -25 14
-5 14 -3 3 11 -8 9 -11 21 -7 27 28 46 -150 73 -380 59z"/>
<path d="M1312 3296 c-73 -40 -89 -52 -104 -79 -12 -23 -3 -19 52 23 19 15 56
37 83 48 26 12 47 26 47 31 0 16 -10 14 -78 -23z"/>
<path d="M1506 3284 c-94 -26 -103 -30 -93 -40 4 -4 26 0 49 9 24 8 73 21 111
27 37 7 67 16 67 21 0 14 -38 9 -134 -17z"/>
<path d="M3916 3231 c-7 -11 17 -21 52 -21 20 1 23 3 12 9 -28 16 -58 22 -64
12z"/>
<path d="M1670 3194 c-156 -24 -238 -51 -355 -117 -76 -43 -102 -63 -116 -88
-5 -10 42 9 118 47 70 35 157 72 193 83 97 30 260 51 384 51 132 -1 123 -15
-14 -23 -144 -9 -285 -43 -395 -94 -93 -43 -195 -124 -195 -154 0 -23 47 -4
98 40 82 70 174 110 317 138 200 38 300 43 365 17 48 -19 65 -10 31 15 -22 17
-23 19 -6 28 24 14 13 40 -22 55 -45 18 -295 19 -403 2z"/>
<path d="M3475 3140 c-13 -5 -14 -9 -5 -9 8 0 24 4 35 9 13 5 14 9 5 9 -8 0
-24 -4 -35 -9z"/>
<path d="M3593 3143 c9 -2 25 -2 35 0 9 3 1 5 -18 5 -19 0 -27 -2 -17 -5z"/>
<path d="M900 3002 c0 -14 56 -32 98 -32 46 0 34 11 -20 20 -24 4 -51 11 -60
15 -11 4 -18 3 -18 -3z"/>
<path d="M1599 2950 c-37 -11 -160 -72 -155 -77 2 -2 29 8 59 22 31 14 62 25
69 25 7 0 24 9 38 20 27 21 27 22 -11 10z"/>
<path d="M1043 2893 c-58 -30 -73 -51 -20 -30 68 29 113 56 92 56 -11 1 -44
-11 -72 -26z"/>
<path d="M3740 2902 c0 -6 16 -14 35 -18 19 -3 39 -12 44 -18 6 -7 12 -61 13
-121 2 -76 7 -110 16 -113 9 -3 12 25 12 116 0 105 -2 121 -19 136 -23 21
-101 34 -101 18z"/>
<path d="M3625 2681 c-167 -85 -217 -106 -385 -161 -197 -65 -390 -117 -505
-135 -49 -8 -128 -21 -175 -29 -219 -38 -331 -47 -591 -48 -264 0 -351 7 -549
50 -25 6 -76 13 -115 17 -38 4 -78 12 -89 17 -12 7 -22 6 -29 -1 -9 -9 -6 -13
9 -17 39 -10 64 -96 74 -256 15 -240 43 -322 124 -363 23 -12 24 -24 5 -99
-22 -95 22 -243 99 -328 36 -40 85 -72 95 -62 3 3 32 -8 64 -24 107 -53 203
-65 523 -66 373 -1 557 26 768 110 80 32 113 49 257 129 81 45 188 111 236
144 49 35 165 115 220 152 33 22 37 29 43 83 10 94 7 225 -6 249 -6 12 -18 27
-27 34 -10 8 -12 12 -4 13 7 0 21 17 32 38 16 30 18 47 11 78 -20 98 -32 299
-20 362 11 61 42 136 61 148 13 8 11 24 -3 23 -7 -1 -62 -27 -123 -58z m40
-45 c-25 -59 -28 -154 -11 -319 12 -109 14 -163 7 -176 -16 -28 -64 -66 -138
-108 -37 -20 -61 -39 -54 -41 24 -8 79 9 125 39 l47 32 26 -24 c25 -24 25 -25
19 -129 -8 -133 -16 -180 -30 -180 -6 0 -55 -29 -109 -65 -54 -36 -103 -65
-108 -65 -5 0 -9 -4 -9 -8 0 -5 -10 -14 -22 -21 -13 -7 -40 -22 -60 -34 -33
-20 -215 -124 -294 -168 -17 -9 -64 -29 -105 -44 -40 -14 -78 -30 -84 -34 -15
-11 -137 -38 -230 -51 -44 -6 -98 -16 -120 -22 -64 -19 -595 -15 -665 4 -30 9
-72 19 -94 23 -21 3 -52 12 -70 20 -17 7 -56 23 -86 35 -69 28 -93 50 -131
119 -40 75 -56 174 -40 247 7 30 18 57 24 58 84 22 98 41 32 44 -122 5 -156
68 -176 327 -5 77 -17 162 -25 189 -8 26 -12 51 -9 54 3 4 36 -1 73 -10 288
-71 451 -86 765 -69 122 7 265 18 317 26 52 7 118 17 145 20 124 16 359 71
555 130 142 43 378 146 513 222 34 19 37 16 22 -21z"/>
<path d="M1957 2057 c-13 -33 50 -203 68 -185 5 5 -50 185 -60 196 -1 2 -5 -4
-8 -11z"/>
<path d="M2750 2019 c0 -7 10 -38 22 -71 24 -68 56 -98 104 -98 34 0 128 32
199 69 22 11 66 26 98 33 31 6 57 16 57 20 0 21 -84 4 -189 -39 -75 -30 -132
-47 -160 -47 -49 -1 -49 -1 -91 97 -19 43 -40 62 -40 36z"/>
<path d="M2305 1833 c-134 -25 -338 -78 -342 -90 -3 -7 14 -7 54 2 54 12 211
43 326 66 27 5 62 9 78 9 19 0 29 5 29 15 0 19 -35 18 -145 -2z"/>
<path d="M1013 2575 c-30 -21 -39 -77 -23 -138 14 -56 74 -163 96 -171 20 -8
17 7 -6 37 -31 39 -80 155 -80 190 0 17 9 40 21 53 28 29 22 50 -8 29z"/>
</g>
</svg>
